:SAMPLES-PER-SECOND 30
:FULLY-SPECIFIED
:DEGREES
1008
root  9.48485 39.1157 30.7814 -54.1869 -82.8272 50.0532
RightUpLeg  -18.0208 -6.2497 -3.93347
RightLeg  -3.16238 -11.4442 6.44418
RightFoot  -1.03454 -0.691808 7.6157
RightToes  0.00048216 0.542163 -0.142577
Spine  13.6056 -1.56972 -6.99604
Spine1  3.04939 -3.75197 6.01281
HEad  -3.73142 -14.123 2.69949
LeftShoulder1  7.09085 -10.9987 -42.4714
LeftArm  -18.0471 21.9682 -25.9616
LeftForeArm  38.9183 -44.7057 -8.39641
LeftHand  -0.25398 0.0180481 5.50724
RightShoulder  4.41621 7.66012 33.6129
RightArm  -1.51318 -24.7843 38.2541
RightForeArm  12.1179 16.6767 5.55779
RightHand  -0.302871 -2.04285 -10.1185
LeftUpLeg  13.8574 5.31274 -6.62887
LeftLeg  11.1367 15.0622 -2.84884
LeftFoot  -17.4842 0.136506 0.596637
LeftToes  1.06246e-005 4.65856e-005 -8.18502e-006
1009
root  7.63848 38.7555 31.1171 -57.5043 -82.6118 53.2749
RightUpLeg  -18.6263 -6.31937 -3.3099
RightLeg  -4.43902 -12.8072 7.1152
RightFoot  -2.4614 -0.686962 8.52971
RightToes  0.00048216 0.542163 -0.142577
Spine  13.2507 -1.6239 -7.62878
Spine1  3.03723 -4.03555 6.8205
HEad  -3.75096 -14.2986 2.70057
LeftShoulder1  6.99872 -10.8439 -42.3644
LeftArm  -18.8649 21.7232 -26.099
LeftForeArm  38.8158 -44.3985 -8.30047
LeftHand  -0.25398 0.0180481 5.50724
RightShoulder  4.35378 7.5226 33.5395
RightArm  -4.58025 -25.5616 37.8015
RightForeArm  13.0289 15.4743 5.61357
RightHand  -0.272006 -2.40952 -10.0736
LeftUpLeg  16.5103 7.00281 -6.43878
LeftLeg  12.675 13.0184 -2.54944
LeftFoot  -18.5233 0.0465681 -1.04106
LeftToes  1.06246e-005 4.65856e-005 -8.18502e-006
1010
root  5.76244 38.4883 31.4753 -58.6469 -83.239 54.1772
RightUpLeg  -20.2049 -6.52596 -1.51706
RightLeg  1.51699 -14.8564 5.87478
RightFoot  -1.6493 -0.400419 4.77399
RightToes  0.00048216 0.542163 -0.142577
Spine  13.1403 -1.90292 -6.3207
Spine1  3.19509 -4.27589 6.74518
HEad  -3.61584 -14.8706 2.78743
LeftShoulder1  6.96647 -10.7991 -42.2966
LeftArm  -19.3526 21.9747 -26.2234
LeftForeArm  38.1987 -43.2701 -7.97052
LeftHand  -0.25398 0.0180481 5.50724
RightShoulder  4.35378 7.47749 33.7003
RightArm  -7.48639 -25.7933 37.1328
RightForeArm  14.0327 14.0956 5.5879
RightHand  -0.227436 -2.87643 -9.75555
LeftUpLeg  19.3077 10.7728 -4.56797
LeftLeg  14.4751 8.97303 -1.74907
LeftFoot  -18.359 -0.0857385 -3.15016
LeftToes  1.06246e-005 4.65856e-005 -8.18502e-006
1011
root  3.74987 38.3002 31.8715 -52.4911 -84.3401 47.6648
RightUpLeg  -22.1476 -10.6153 2.56641
RightLeg  10.1749 -11.0736 2.59493
RightFoot  1.45678 0.319533 -2.6565
RightToes  0.00048216 0.542163 -0.142577
Spine  12.6764 -2.69332 -3.18157
Spine1  3.5167 -4.62959 5.91783
HEad  -3.21038 -15.1343 2.49468
LeftShoulder1  7.02403 -10.8071 -42.644
LeftArm  -18.9747 22.5348 -26.1919
LeftForeArm  37.3082 -41.0197 -7.33032
LeftHand  -0.25398 0.0180481 5.50724
RightShoulder  4.32546 7.38224 33.7859
RightArm  -9.93025 -25.8191 36.3422
RightForeArm  14.6977 12.8423 5.44027
RightHand  -0.198573 -3.15066 -9.37066
LeftUpLeg  22.0821 16.4842 -0.311018
LeftLeg  17.2391 1.88751 -0.873001
LeftFoot  -17.1324 -0.25562 -7.21128
LeftToes  1.06246e-005 4.65856e-005 -8.18502e-006
1012
root  1.66194 38.2168 32.2649 -38.0305 -85.8297 32.7986
RightUpLeg  -23.7126 -15.3453 7.4634
RightLeg  17.6373 -4.00319 -0.586868
RightFoot  3.5321 1.27135 -9.64714
RightToes  0.00048216 0.542163 -0.142577
Spine  11.9827 -3.473 1.05108
Spine1  3.82876 -4.73853 4.84276
HEad  -2.15593 -15.3936 1.61974
LeftShoulder1  7.10819 -10.7954 -43.2246
LeftArm  -17.7284 23.0336 -26.5621
LeftForeArm  36.4353 -37.4544 -6.36886
LeftHand  -0.25398 0.0180481 5.50724
RightShoulder  4.27084 7.27519 33.6745
RightArm  -11.8292 -25.7887 35.5107
RightForeArm  14.7243 11.9249 5.2102
RightHand  -0.197524 -3.11454 -9.17082
LeftUpLeg  22.8936 18.9208 3.79485
LeftLeg  22.7625 -1.61517 -0.151142
LeftFoot  -12.3274 -0.00798615 -12.0979
LeftToes  1.06246e-005 4.65856e-005 -8.18502e-006
1013
root  -0.323098 38.1712 32.5849 -10.7435 -87.2782 5.29409
RightUpLeg  -23.9033 -13.3908 9.23344
RightLeg  23.7525 -4.15938 -2.39047
RightFoot  2.02652 1.52962 -12.869
RightToes  0.00048216 0.542163 -0.142577
Spine  11.5131 -3.75427 4.99497
Spine1  3.94932 -4.39031 4.24409
HEad  -0.80572 -16.1124 0.734966
LeftShoulder1  7.16958 -10.8201 -43.5402
LeftArm  -16.0172 23.3458 -27.7246
LeftForeArm  35.4172 -33.198 -5.33061
LeftHand  -0.25398 0.0180481 5.50724
RightShoulder  4.25674 7.30426 33.4396
RightArm  -13.1826 -25.3261 34.8483
RightForeArm  14.2179 11.3775 4.9974
RightHand  -0.202498 -3.02836 -9.10187
LeftUpLeg  19.1414 16.496 5.32002
LeftLeg  32.8759 0.836553 0.974854
LeftFoot  -1.12511 1.17791 -13.5906
LeftToes  1.06246e-005 4.65856e-005 -8.18502e-006
1014
root  -2.04499 38.042 32.8056 31.6233 -87.4287 -36.9251
RightUpLeg  -23.5336 -11.2063 10.4005
RightLeg  28.7274 -6.18444 -3.8923
RightFoot  -1.92416 1.05693 -12.851
RightToes  0.00048216 0.542163 -0.142577
Spine  11.4146 -3.85701 7.98173
Spine1  4.09507 -3.98275 4.61496
HEad  -0.00598074 -17.08 0.525887
LeftShoulder1  7.26488 -10.9807 -43.6357
LeftArm  -14.0079 23.4867 -29.0864
LeftForeArm  34.2406 -29.4841 -4.52189
LeftHand  -0.25398 0.0180481 5.50724
RightShoulder  4.2891 7.43907 33.2509
RightArm  -13.8551 -23.9319 34.4661
RightForeArm  13.4048 11.3611 4.90397
RightHand  -0.193594 -3.13025 -9.02764
LeftUpLeg  11.6532 13.4385 5.89877
LeftLeg  45.5529 1.92258 2.45113
LeftFoot  12.5536 2.18162 -10.6892
LeftToes  1.06246e-005 4.65856e-005 -8.18502e-006
1015
root  -3.614 37.9514 32.982 54.7197 -86.2018 -59.7714
RightUpLeg  -22.496 -11.1158 11.6184
RightLeg  31.8239 -6.61849 -4.66164
RightFoot  -5.95551 0.516812 -11.8047
RightToes  0.00048216 0.542163 -0.142577
Spine  11.4632 -4.05912 10.1055
Spine1  4.4856 -3.82666 5.55551
HEad  0.201143 -18.114 1.00546
LeftShoulder1  7.43253 -11.226 -43.9147
LeftArm  -11.8683 23.5083 -29.8937
LeftForeArm  33.7111 -27.2134 -4.04953
LeftHand  -0.25398 0.0180481 5.50724
RightShoulder  4.31817 7.49849 33.3036
RightArm  -13.6189 -21.5217 34.2148
RightForeArm  12.2296 12.1671 4.96928
RightHand  -0.193609 -3.18214 -9.23537
LeftUpLeg  3.17548 9.91647 6.08949
LeftLeg  57.0165 1.48518 2.98657
LeftFoot  19.0593 1.90479 -7.37129
LeftToes  1.06246e-005 4.65856e-005 -8.18502e-006
